<?xml version="1.0" standalone="no"?>
<!DOCTYPE svg PUBLIC "-//W3C//DTD SVG 20010904//EN"
 "http://www.w3.org/TR/2001/REC-SVG-20010904/DTD/svg10.dtd">
<svg version="1.0" xmlns="http://www.w3.org/2000/svg"
 width="40.000000pt" height="45.000000pt" viewBox="0 0 40.000000 45.000000"
 preserveAspectRatio="xMidYMid meet">

<g transform="translate(0.000000,45.000000) scale(0.100000,-0.100000)"
fill="#000000" stroke="none">
<path d="M109 400 c-112 -59 -142 -205 -62 -300 78 -93 228 -93 306 0 60 71
60 179 0 250 -57 68 -167 91 -244 50z m181 -22 c58 -31 85 -81 85 -153 0 -73
-27 -121 -88 -156 -80 -44 -185 -19 -237 58 -35 52 -35 144 0 195 55 82 152
104 240 56z"/>
<path d="M110 225 l0 -105 90 0 90 0 0 77 c0 70 -2 79 -27 105 -24 25 -34 28
-90 28 l-63 0 0 -105z m120 70 c0 -18 5 -25 20 -25 18 0 20 -7 20 -70 l0 -70
-70 0 -70 0 0 95 0 95 50 0 c47 0 50 -2 50 -25z"/>
<path d="M150 265 c0 -15 5 -24 13 -22 6 1 12 -5 11 -13 -1 -9 7 -17 16 -17
13 -1 16 4 13 18 -3 10 -9 19 -14 19 -5 0 -9 9 -9 20 0 11 -7 20 -15 20 -9 0
-15 -9 -15 -25z"/>
<path d="M228 213 c7 -3 16 -2 19 1 4 3 -2 6 -13 5 -11 0 -14 -3 -6 -6z"/>
<path d="M173 183 c15 -2 39 -2 55 0 15 2 2 4 -28 4 -30 0 -43 -2 -27 -4z"/>
<path d="M173 163 c15 -2 39 -2 55 0 15 2 2 4 -28 4 -30 0 -43 -2 -27 -4z"/>
</g>
</svg>
